<svg width="574" height="573" viewBox="0 0 574 573" fill="none" xmlns="http://www.w3.org/2000/svg">
<path d="M84.5 204.5H489.5" stroke="#3483FA" stroke-width="5"/>
<path d="M505 287.5C447.5 305.167 334 370.9 340 492.5" stroke="#3483FA" stroke-width="5"/>
<path d="M504.5 280.5C504.5 402.029 407.095 500.5 287 500.5C166.905 500.5 69.5 402.029 69.5 280.5C69.5 158.971 166.905 60.5 287 60.5C407.095 60.5 504.5 158.971 504.5 280.5Z" stroke="#3483FA" stroke-width="5"/>
<path d="M343.5 309.5C343.5 340.408 318.224 365.5 287 365.5C255.776 365.5 230.5 340.408 230.5 309.5C230.5 278.592 255.776 253.5 287 253.5C318.224 253.5 343.5 278.592 343.5 309.5Z" stroke="#3483FA" stroke-width="5"/>
<path d="M69 282.5C122.833 299 231.9 364.7 237.5 495.5" stroke="#3483FA" stroke-width="5"/>
<path d="M571.5 286.5C571.5 443.345 444.129 570.5 287 570.5C129.871 570.5 2.5 443.345 2.5 286.5C2.5 129.655 129.871 2.5 287 2.5C444.129 2.5 571.5 129.655 571.5 286.5Z" stroke="#3483FA" stroke-width="5"/>
</svg>
