<svg width="202" height="178" viewBox="0 0 202 178" fill="none" xmlns="http://www.w3.org/2000/svg">
<path d="M147 150V175.5H189.5V150M189.5 150H199.5V96.5L189.5 73L172.5 2.5H30L20 68L2.5 96.5V150H12.5M189.5 150H59M12.5 150V175.5H59V150M12.5 150H59M88 111H118.5" stroke="#3483FA" stroke-width="4"/>
<path d="M21 68.5H188.5" stroke="#3483FA" stroke-width="4"/>
<path d="M53 111.5C53 117.446 46.7388 123 38 123C29.2612 123 23 117.446 23 111.5C23 105.554 29.2612 100 38 100C46.7388 100 53 105.554 53 111.5Z" stroke="#3483FA" stroke-width="4"/>
<path d="M178 111.5C178 117.446 171.739 123 163 123C154.261 123 148 117.446 148 111.5C148 105.554 154.261 100 163 100C171.739 100 178 105.554 178 111.5Z" stroke="#3483FA" stroke-width="4"/>
</svg>
