<svg width="582" height="479" viewBox="0 0 582 479" fill="none" xmlns="http://www.w3.org/2000/svg">
<path d="M294 0V166" stroke="#3483FA" stroke-width="10"/>
<path d="M261 348C261 418.671 203.266 476 132 476C60.7337 476 3 418.671 3 348C3 277.329 60.7337 220 132 220C203.266 220 261 277.329 261 348Z" stroke="#3483FA" stroke-width="6"/>
<path d="M579 348C579 418.671 521.266 476 450 476C378.734 476 321 418.671 321 348C321 277.329 378.734 220 450 220C521.266 220 579 277.329 579 348Z" stroke="#3483FA" stroke-width="6"/>
<path d="M250.5 398.5H329.5" stroke="#3483FA" stroke-width="6"/>
<path d="M130 220H459" stroke="#3483FA" stroke-width="6"/>
<path d="M138.5 288V350M138.5 412V350M138.5 350H201.5H77" stroke="#3483FA" stroke-width="15"/>
<path d="M427.301 366V381.5M427.301 397V381.5M427.301 381.5H444H411" stroke="#3483FA" stroke-width="8"/>
<path d="M479.301 314V329.5M479.301 345V329.5M479.301 329.5H496H463" stroke="#3483FA" stroke-width="8"/>
<path d="M138.5 288V350M138.5 412V350M138.5 350H201.5H77" stroke="#3483FA" stroke-width="15"/>
<rect x="0.5" y="0.5" width="581" height="478" stroke="#3483FA"/>
</svg>
