<svg width="243" height="245" viewBox="0 0 243 245" fill="none" xmlns="http://www.w3.org/2000/svg">
<path d="M209.253 118.451C231.076 113.83 239.509 132.392 241 143.529V220.79H34.3269M209.253 118.451C206.462 119.042 203.453 120.012 200.212 121.425C197.899 120.372 186.336 131.74 186.336 137.635C186.336 142.35 186.336 157.002 186.336 163.739H59.7668V137.635C57.2034 129.1 48.7449 113.889 34.3269 115.468M209.253 118.451V21.8484C210.374 15.2521 207.36 2.05951 186.336 2.05951C165.311 2.05951 89.1313 2.05951 53.6696 2.05951C46.8716 1.49812 33.4859 4.66997 34.3269 21.8484V115.468M34.3269 115.468C32.9774 115.616 31.5758 115.911 30.1219 116.372C23.7444 117.635 9.39152 123.656 3 137.635L4.68198 220.79H34.3269M34.3269 220.79V245" stroke="#3483FA" stroke-width="4"/>
<path d="M208 221V244" stroke="#3483FA" stroke-width="4"/>
</svg>
