<svg width="202" height="201" viewBox="0 0 202 201" fill="none" xmlns="http://www.w3.org/2000/svg">
<path fill-rule="evenodd" clip-rule="evenodd" d="M2 0H0V2V198.5V200.5H2H200H202V198.5V2V0H200H2ZM4 196.5V4H198V196.5H4ZM34 70.5H32V72.5V165.5V167.5H34H164.5H166.5V165.5V72.5V70.5H164.5H34ZM36 163.5V74.5H162.5V163.5H36ZM72 109.5V120V122H74H125.5H127.5V120V109.5H123.5V118H76V109.5H72ZM49.5 38C49.5 40.3564 46.8912 43.5 42 43.5C37.1088 43.5 34.5 40.3564 34.5 38C34.5 35.6436 37.1088 32.5 42 32.5C46.8912 32.5 49.5 35.6436 49.5 38ZM53.5 38C53.5 43.2467 48.3513 47.5 42 47.5C35.6487 47.5 30.5 43.2467 30.5 38C30.5 32.7533 35.6487 28.5 42 28.5C48.3513 28.5 53.5 32.7533 53.5 38ZM101 43.5C105.891 43.5 108.5 40.3564 108.5 38C108.5 35.6436 105.891 32.5 101 32.5C96.1088 32.5 93.5 35.6436 93.5 38C93.5 40.3564 96.1088 43.5 101 43.5ZM101 47.5C107.351 47.5 112.5 43.2467 112.5 38C112.5 32.7533 107.351 28.5 101 28.5C94.6487 28.5 89.5 32.7533 89.5 38C89.5 43.2467 94.6487 47.5 101 47.5ZM167.5 38C167.5 40.3564 164.891 43.5 160 43.5C155.109 43.5 152.5 40.3564 152.5 38C152.5 35.6436 155.109 32.5 160 32.5C164.891 32.5 167.5 35.6436 167.5 38ZM171.5 38C171.5 43.2467 166.351 47.5 160 47.5C153.649 47.5 148.5 43.2467 148.5 38C148.5 32.7533 153.649 28.5 160 28.5C166.351 28.5 171.5 32.7533 171.5 38Z" fill="#3483FA"/>
</svg>
