<?xml version="1.0" encoding="UTF-8" standalone="no"?> <svg width="64" height="64" viewBox="0 0 64 64" fill="none" xmlns="http://www.w3.org/2000/svg">
<path d="M51.0702 13.3598H46.7302C46.6402 12.5198 47.1302 10.4698 45.7302 10.4998H37.3802C35.9902 10.4998 36.4602 12.4998 36.3802 13.3598H27.6202C27.5302 12.5198 28.0202 10.4698 26.6202 10.4998H18.2702C16.8802 10.4998 17.3502 12.4998 17.2702 13.3598H12.9302C12.665 13.3598 12.4106 13.4652 12.2231 13.6527C12.0355 13.8403 11.9302 14.0946 11.9302 14.3598V50.1998C11.9302 50.4651 12.0355 50.7194 12.2231 50.9069C12.4106 51.0945 12.665 51.1998 12.9302 51.1998H51.0702C51.3354 51.1998 51.5897 51.0945 51.7773 50.9069C51.9648 50.7194 52.0702 50.4651 52.0702 50.1998V14.3598C52.0702 14.0946 51.9648 13.8403 51.7773 13.6527C51.5897 13.4652 51.3354 13.3598 51.0702 13.3598ZM38.3802 12.4998H44.7302V13.3598H38.3802V12.4998ZM19.2702 12.4998H25.6202V13.3598H19.2702V12.4998ZM13.9302 15.3598H50.0702V21.3098H13.9302V15.3598ZM13.9302 49.1998V23.3098H50.0702V49.1998H13.9302Z" fill="black"/>
<path d="M32.0002 16.4597C29.5702 16.4597 29.5702 20.2397 32.0002 20.2097C34.4302 20.1797 34.4302 16.4297 32.0002 16.4597ZM31.8702 18.3297C31.8702 18.2952 31.8839 18.2621 31.9083 18.2377C31.9327 18.2133 31.9658 18.1997 32.0002 18.1997C32.0347 18.1997 32.0678 18.2133 32.0922 18.2377C32.1165 18.2621 32.1302 18.2952 32.1302 18.3297C32.1302 18.4697 31.8702 18.4697 31.8702 18.3297V18.3297Z" fill="black"/>
<path d="M41.55 16.4597C39.12 16.4597 39.12 20.2397 41.55 20.2097C43.98 20.1797 44 16.4297 41.55 16.4597ZM41.43 18.3297C41.4378 18.3025 41.4542 18.2786 41.4768 18.2616C41.4993 18.2446 41.5268 18.2354 41.555 18.2354C41.5833 18.2354 41.6108 18.2446 41.6333 18.2616C41.6559 18.2786 41.6723 18.3025 41.68 18.3297C41.68 18.4697 41.43 18.4697 41.43 18.3297V18.3297Z" fill="black"/>
<path d="M22.4501 16.4597C20.0101 16.4597 20.0101 20.2397 22.4501 20.2097C24.8901 20.1797 24.8801 16.4297 22.4501 16.4597ZM22.3201 18.3297C22.3279 18.3025 22.3443 18.2786 22.3668 18.2616C22.3894 18.2446 22.4169 18.2354 22.4451 18.2354C22.4734 18.2354 22.5009 18.2446 22.5234 18.2616C22.546 18.2786 22.5624 18.3025 22.5701 18.3297C22.5701 18.4697 22.3201 18.4697 22.3201 18.3297V18.3297Z" fill="black"/>
<path d="M44 29.0898H20C19.7348 29.0898 19.4804 29.1952 19.2929 29.3827C19.1054 29.5703 19 29.8246 19 30.0898V45.2298C19 45.4951 19.1054 45.7494 19.2929 45.937C19.4804 46.1245 19.7348 46.2298 20 46.2298H44C44.2652 46.2298 44.5196 46.1245 44.7071 45.937C44.8946 45.7494 45 45.4951 45 45.2298V30.0898C45 29.8246 44.8946 29.5703 44.7071 29.3827C44.5196 29.1952 44.2652 29.0898 44 29.0898ZM43 44.2298H21V31.0898H43V44.2298Z" fill="black"/>
<path d="M44.0002 24.6399H20.0002C18.8702 24.6399 19.0002 25.9799 19.0002 26.7599C19.0161 27.0251 19.1367 27.2731 19.3355 27.4494C19.5343 27.6257 19.7949 27.7158 20.0602 27.6999C20.3254 27.684 20.5734 27.5633 20.7497 27.3645C20.926 27.1658 21.0161 26.9051 21.0002 26.6399H43.0002C42.9842 26.9051 43.0743 27.1658 43.2506 27.3645C43.4269 27.5633 43.6749 27.684 43.9402 27.6999C44.2054 27.7158 44.466 27.6257 44.6648 27.4494C44.8636 27.2731 44.9842 27.0251 45.0002 26.7599C45.0002 25.9999 45.1102 24.6199 44.0002 24.6399Z" fill="black"/>
<path d="M20.0001 51.5H15.8701C15.6049 51.5 15.3505 51.6054 15.163 51.7929C14.9755 51.9804 14.8701 52.2348 14.8701 52.5C14.8701 52.7652 14.9755 53.0196 15.163 53.2071C15.3505 53.3946 15.6049 53.5 15.8701 53.5H20.0001C20.2653 53.5 20.5197 53.3946 20.7072 53.2071C20.8948 53.0196 21.0001 52.7652 21.0001 52.5C21.0001 52.2348 20.8948 51.9804 20.7072 51.7929C20.5197 51.6054 20.2653 51.5 20.0001 51.5Z" fill="black"/>
<path d="M48.13 51.5001H44C43.7348 51.5001 43.4804 51.6054 43.2929 51.7929C43.1054 51.9805 43 52.2348 43 52.5001C43 52.7653 43.1054 53.0196 43.2929 53.2072C43.4804 53.3947 43.7348 53.5001 44 53.5001H48.15C48.4152 53.4974 48.6685 53.3895 48.8542 53.2001C49.0398 53.0107 49.1427 52.7553 49.14 52.4901C49.1373 52.2248 49.0294 51.9715 48.84 51.7859C48.6506 51.6002 48.3952 51.4974 48.13 51.5001V51.5001Z" fill="black"/>
</svg>
