<svg width="388" height="578" viewBox="0 0 388 578" fill="none" xmlns="http://www.w3.org/2000/svg">
<path d="M387 169L1 168" stroke="#3483FA" stroke-width="5"/>
<path d="M157.298 116.5V104C157.298 100.686 159.984 98 163.298 98H227.206C230.52 98 233.206 100.686 233.206 104V116.5C233.206 119.814 230.52 122.5 227.206 122.5H163.298C159.984 122.5 157.298 119.814 157.298 116.5Z" fill="#3483FA"/>
<path d="M3 454H388M233.206 104V116.5C233.206 119.814 230.52 122.5 227.206 122.5H163.298C159.984 122.5 157.298 119.814 157.298 116.5V104C157.298 100.686 159.984 98 163.298 98H227.206C230.52 98 233.206 100.686 233.206 104Z" stroke="#3483FA" stroke-width="5"/>
<rect x="3" y="2" width="383" height="574" rx="18" stroke="#3483FA" stroke-width="4"/>
</svg>
