<svg width="205" height="202" viewBox="0 0 205 202" fill="none" xmlns="http://www.w3.org/2000/svg">
<path d="M128 197L140.842 153H189" stroke="#3483FA" stroke-width="4"/>
<path d="M202.5 106L166.5 81L183.5 41" stroke="#3483FA" stroke-width="4"/>
<path d="M135.5 8L103.5 35L71.5 8" stroke="#3483FA" stroke-width="4"/>
<path d="M27 38L38 79L2 103" stroke="#3483FA" stroke-width="4"/>
<path d="M74.5 196.5L64.5 152.5H19" stroke="#3483FA" stroke-width="4"/>
<path d="M123.5 128.5H86.5L64.5 92L102.5 64L139.5 92L123.5 128.5Z" stroke="#3483FA" stroke-width="4"/>
<path d="M203 101C203 155.658 158.247 200 103 200C47.7529 200 3 155.658 3 101C3 46.3423 47.7529 2 103 2C158.247 2 203 46.3423 203 101Z" stroke="#3483FA" stroke-width="4"/>
</svg>
