<svg width="203" height="208" viewBox="0 0 203 208" fill="none" xmlns="http://www.w3.org/2000/svg">
<path d="M82.0278 161.515H120.528" stroke="#3483FA" stroke-width="4"/>
<path d="M120.028 124.515L102.028 143.015L80.0278 124.515H120.028Z" fill="#3483FA"/>
<path d="M102.028 161.515V143.015M102.028 143.015L120.028 124.515H80.0278L102.028 143.015Z" stroke="#3483FA" stroke-width="4"/>
<path d="M193.528 112.515C193.528 163.611 152.328 205.015 101.528 205.015C50.7276 205.015 9.52783 163.611 9.52783 112.515C9.52783 61.4183 50.7276 20.0146 101.528 20.0146C152.328 20.0146 193.528 61.4183 193.528 112.515Z" stroke="#3483FA" stroke-width="4"/>
<path d="M76.5278 94.5146C76.5278 98.6568 73.17 102.015 69.0278 102.015C64.8857 102.015 61.5278 98.6568 61.5278 94.5146C61.5278 90.3725 64.8857 87.0146 69.0278 87.0146C73.17 87.0146 76.5278 90.3725 76.5278 94.5146Z" fill="#3483FA"/>
<circle cx="133.028" cy="94.5146" r="7.5" fill="#3483FA"/>
<path d="M146.028 31.0144C151.028 14.5145 167.328 -12.1854 192.528 13.0146C201.194 22.5144 210.328 45.4141 177.528 61.0143M24.5278 61.0143C7.52779 51.3477 -16.2722 26.0144 24.5278 2.01439C36.0278 1.68106 58.7278 7.0144 57.5278 31.0144C57.5278 27.4526 29.5277 51.0143 24.5278 61.0143Z" stroke="#3483FA" stroke-width="4"/>
</svg>
